<svg xmlns="http://www.w3.org/2000/svg" viewBox="0 0 393.1 427.1"><defs><style>.cls-1{fill:#132530;}.cls-2{fill:#fff;}.cls-3{fill:#b24630;}</style></defs><g id="Layer_2" data-name="Layer 2"><g id="_ëîé_1" data-name="‘ëîé_1"><path class="cls-1" d="M.6,188.8a32.9,32.9,0,0,0,2.1,7.6,40.5,40.5,0,0,0,3.7,6.8,27,27,0,0,0,4.9,5.8,29.6,29.6,0,0,0,6.1,4.4c2.5,1.2,5,2.3,7.6,3.3a53.5,53.5,0,0,0,6.7,2.4,36.1,36.1,0,0,0,8,1.3,49.5,49.5,0,0,0,6.7-.2,31.4,31.4,0,0,0,7.4-1.5l2.8-1.1,3.8-1.9a38,38,0,0,0,5.7-3.5,45.1,45.1,0,0,0,5.1-4.7,29,29,0,0,0,4.4-6,48.8,48.8,0,0,0,4.8-13.9,52.5,52.5,0,0,0,.9-14.8,36.5,36.5,0,0,0-1.2-6.6,28.4,28.4,0,0,0-2.7-6.8,36.5,36.5,0,0,0-4-6.2,41,41,0,0,0-5.3-4.9l-2.3-1.7-1.1-.8a43.6,43.6,0,0,0-7.2-4.2,26.2,26.2,0,0,0-3.9-1.5,28.4,28.4,0,0,0-4.2-.9l-5.6-.4a26.8,26.8,0,0,0-4.9.1l-2.4-.2a20.5,20.5,0,0,0-3.5.1,33.4,33.4,0,0,0-5.2.9,19.2,19.2,0,0,0-3.1,1.1,38.1,38.1,0,0,0-4.5,2.3,35.9,35.9,0,0,0-5.4,4,39.1,39.1,0,0,0-5.6,6.6,54.2,54.2,0,0,0-6.4,13,48.7,48.7,0,0,0-2.2,7.7,37.9,37.9,0,0,0-.6,6.7v.9c0,1.2,0,2.3.1,3.4S.4,187.6.6,188.8Z"/><path class="cls-1" d="M135.7,157.4a5.9,5.9,0,0,0,.6,1.4,8.5,8.5,0,0,0,1.4,1.9,7,7,0,0,0,1.6,1.3,10.2,10.2,0,0,0,2.2.9l2.3.4a8.2,8.2,0,0,0,3.5-.9,6.4,6.4,0,0,0,2.5-2.4,6.2,6.2,0,0,0,1.1-1.7,17.2,17.2,0,0,0,.7-2.1,15.2,15.2,0,0,0,.3-2.1,12,12,0,0,0-.1-2.7,4.9,4.9,0,0,0-1.1-2.3,8.1,8.1,0,0,0-3-2.8,5.1,5.1,0,0,0-1.7-.7h-.2a2.1,2.1,0,0,0-1.4-.4,10.7,10.7,0,0,0-2.5.1l-1.6.7a7.8,7.8,0,0,0-2,1.6,11.8,11.8,0,0,0-2.4,4.4,10.6,10.6,0,0,0-.5,3.1c0,.3.1.6.1.9A6.8,6.8,0,0,0,135.7,157.4Z"/><path class="cls-2" d="M39.7,193.2l-.3-1.2v-.7a2.8,2.8,0,0,0-2.7-2.7,2.6,2.6,0,0,0-2.6,2.6h0a12.4,12.4,0,0,0,.3,2.7,14.5,14.5,0,0,0,.9,2.2,12.7,12.7,0,0,0,1.3,1.9,14.6,14.6,0,0,0,1.9,1.6,8.8,8.8,0,0,0,2.6,1.2,10.9,10.9,0,0,0,2.5.4,8.2,8.2,0,0,0,2.7-.2,13.1,13.1,0,0,0,2.8-.9h-.2a5.2,5.2,0,0,0,1.3-.6,8.6,8.6,0,0,0,2-1.8l1.2-1.7a13.6,13.6,0,0,0,1-2.1,14.3,14.3,0,0,0,.6-3.7c0-.5-.1-1.1-.1-1.7a17,17,0,0,0-.4-2.2,22.8,22.8,0,0,0-2.4-6.6,10.9,10.9,0,0,0-.8-1.5l-.4-.9h-.1a1.4,1.4,0,0,0-.2-.6l-.6-1.9v-1.6a23.3,23.3,0,0,1,.7-2.5,17.1,17.1,0,0,1,1.3-2.3,9.4,9.4,0,0,1,1-1l.9-.6.8-.2h.7l1.2.4.5.2.7.7a4.1,4.1,0,0,0,.5.9.6.6,0,0,0,.1.4,5.7,5.7,0,0,1-.1,1.3c-.1.7-.3,1.4-.4,2.2a2.6,2.6,0,0,0,1.8,3.2,2.5,2.5,0,0,0,3.2-1.8,18,18,0,0,0,.8-3.9,7.6,7.6,0,0,0-1.4-4.9,11.5,11.5,0,0,0-1.4-1.7,6.4,6.4,0,0,0-3.4-1.9l-2.2-.4-1.9.2a7,7,0,0,0-2.4.9,11.8,11.8,0,0,0-1.8,1.3,10.6,10.6,0,0,0-1.7,2,14.4,14.4,0,0,0-2,3.9,12.1,12.1,0,0,0,0,8.6l.3.6h0v.2l.2.5c.1.2.2.3.2.5s1.5,2.8,2.1,4.2a22,22,0,0,1,1.2,4.4,19.3,19.3,0,0,1,.1,2.4c-.1.5-.3,1-.4,1.5a8.6,8.6,0,0,1-1,1.6l-.6.7a3,3,0,0,1-1.1.6,5.5,5.5,0,0,1-1.7.5H43.5l-1.5-.4-.9-.5-.6-.6Zm10.9-16.6Zm-3.7,18.8h0Z"/><path class="cls-2" d="M13.1,193.9l6.7,2.3,6.4,1.9a2.6,2.6,0,1,0,1.4-5.1l-3-.9-.7-.2h0l.9-2.5c.3-1.1.7-2.2,1.1-3.3s.7-2.4,1.1-3.6.7-2.3,1.1-3.4,1.7-5.2,2.5-7.8,1.8-5.1,2.6-7.7c.3-.9.5-1.8.8-2.7a19.2,19.2,0,0,0,3.2.9,2.8,2.8,0,0,0,2-.3,2.6,2.6,0,0,0,1.2-1.5,2.6,2.6,0,0,0-1.8-3.3c-1.9-.4-3.7-1.1-5.6-1.6l-2.9-.7-3.6-1.4a2.6,2.6,0,0,0-2.1.2,3.1,3.1,0,0,0-1.2,1.6,1.7,1.7,0,0,0-.1.7,2.5,2.5,0,0,0,.4,1.4,3.3,3.3,0,0,0,1.6,1.2,34.2,34.2,0,0,0,3.4,1.3h.4c-.7,2.4-1.5,4.8-2.3,7.2s-1.6,5.2-2.6,7.7l-1.2,3.9a35.8,35.8,0,0,0-1.1,3.5c-.7,2.2-1.5,4.4-2.2,6.7l-.6,1.9-4.4-1.5a2.6,2.6,0,0,0-3.2,1.9,1.5,1.5,0,0,0-.1.7,3.1,3.1,0,0,0,.3,1.3A2.8,2.8,0,0,0,13.1,193.9Z"/><path class="cls-3" d="M184.6,288.6a44.1,44.1,0,0,0,2.6,7.2,61.1,61.1,0,0,0,3.5,6.7c.5,1,1.1,1.9,1.7,2.9s1.4,2.1,2.1,3.1l.7,1.1c.1.1.1.1.1.2a.6.6,0,0,1,.1.4,2.8,2.8,0,0,0,3.3,1.8,19,19,0,0,0,3.8-1.3,22.7,22.7,0,0,0,3.4-1.9l3.3-1.9,3.5-2.9a19.7,19.7,0,0,0,3-3.4,12,12,0,0,0,2-3.7,15.8,15.8,0,0,0,1.1-3.7,16,16,0,0,0,.3-2.3,13.6,13.6,0,0,0-.2-2,9.8,9.8,0,0,0-.5-1.6,8.9,8.9,0,0,0-4.5-5,7.3,7.3,0,0,0-1.9-.7,7.8,7.8,0,0,0-4.3.3,12.9,12.9,0,0,0-3.3,1.7,15.1,15.1,0,0,0-2.3,2.1l-.3.2c-.4-1.1-.8-2.2-1.3-3.3a23.9,23.9,0,0,0-1.3-2.1,16.4,16.4,0,0,0-4.4-4.3,9.2,9.2,0,0,0-3.6-1l-1.9.2a4.9,4.9,0,0,0-1.7.6,8,8,0,0,0-3.2,4.6,9.2,9.2,0,0,0-.4,2.9v.9A30.3,30.3,0,0,0,184.6,288.6Zm7.5-7.8Z"/><path class="cls-1" d="M100.2,120.4a14.6,14.6,0,0,0,6,1c8.3.3,16.5,2.1,24.8,1.2a3.9,3.9,0,0,0,2.6-.7,3,3,0,0,0,1.2-2.9,5.2,5.2,0,0,0-1.8-3.1,7.3,7.3,0,0,0-4.2-1.8c-3.3-.3-6.6-.4-10-.4h-5l-3.4-.4.4-1.3c.7-2.1,1.4-4.3,2-6.4,1.2-4.7,2.2-9.4,3.3-14.1,2.3-9.6,5-19.1,8-28.6s5.1-17,7.3-25.7c1.1-4.4,2.1-8.8,3.1-13.2s2.6-9.6,4-14.4a7,7,0,0,0-.5-3.5,10.1,10.1,0,0,0-4.3-4.6A9.9,9.9,0,0,0,126.4.3l-1.9.9a4.6,4.6,0,0,0-2,3.1c-1.5,5.3-3.1,10.5-4.6,15.8s-2.7,9.6-4.1,14.4-2.4,9.2-3.6,13.8-2.6,9.7-3.8,14.6c-2.1,8.7-4.6,17.4-6.4,26.2-.9,4.2-1.4,8.5-2.1,12.7S93.2,117.2,100.2,120.4Z"/><path class="cls-1" d="M147.7,105a30.9,30.9,0,0,0,7,6,19.9,19.9,0,0,0,8.2,2.7,18.5,18.5,0,0,0,7.4-.6,24.4,24.4,0,0,0,7-4,38.4,38.4,0,0,0,5.7-5.7,42.1,42.1,0,0,0,3.9-5.5,42.2,42.2,0,0,0,3.6-6.6c4.1-8.6,7.5-17.7,8.8-27.2.3-2.7.6-5.3.7-7.9a30.4,30.4,0,0,0-1.2-10.8,20.8,20.8,0,0,0-4.4-7.6c-3-3.6-8.7-8.2-13.6-8.5s-10.2-.5-14.9,1.4-8.8,6.5-12,10.6a36.8,36.8,0,0,0-3.9,5.8c-1.1,2.1-2.3,4.2-3.2,6.4a79,79,0,0,0-4.4,15.3,88.7,88.7,0,0,0-1.8,15.6,31.8,31.8,0,0,0,3.2,14.7A33.5,33.5,0,0,0,147.7,105Zm9.6-21.8a88.7,88.7,0,0,1,3.4-12.5c1.9-5,3.8-9.9,6-14.7s4.3-10.3,7.8-14.7a23.3,23.3,0,0,1,3.5-2.7l1.1-.3a18.9,18.9,0,0,1,4.1.3h.4l.4.2.6.3.6.9a24.4,24.4,0,0,1,1.4,3.4,27.7,27.7,0,0,1,.7,7,53.9,53.9,0,0,1-1.4,12c-.5,2.2-1,4.4-1.7,6.5s-1.5,4.6-2.3,6.8a123.6,123.6,0,0,1-6.7,15.4,60.9,60.9,0,0,1-8.1,12.5,18.1,18.1,0,0,1-3.4,2.8l-1.2.4h-.6l-.8-.3-.9-.5-1.4-1.3a12.7,12.7,0,0,1-1.3-1.9,16.3,16.3,0,0,1-1.1-2.3,32.6,32.6,0,0,1-.5-4.5A91.1,91.1,0,0,1,157.3,83.2Z"/><path class="cls-1" d="M262.8,81.8c-1.2,3.4-2.1,7-3,10.5-1.4,6.1-2.8,12.2-3.8,18.4s-2.5,13.1,1.5,16.7a7.7,7.7,0,0,0,5,2c3.1-.1,6.2-.2,9.4-.5l9.4-1.1c5.3-.6,10.5-1.4,15.8-2.2a3.3,3.3,0,0,0,1.9-1.4,3.1,3.1,0,0,0,0-2.8,6,6,0,0,0-5.2-3.4c-4.1-.3-8.2-.7-12.4-.6a73.2,73.2,0,0,0-10.4,1c.6-1.4,1.1-2.9,1.7-4.3,1.6-4,3-8.1,4.3-12.2,2.5-7.5,5-15,7.7-22.4.7-2,1.5-4.1,2.2-6.2h0c-.1.2-.1.4-.2.6s.1-.4.2-.6h5.7a80.8,80.8,0,0,0,11-.2,3.8,3.8,0,0,0,2.5-.7,2.7,2.7,0,0,0,1.1-2.8,4,4,0,0,0-.9-2.1,5.8,5.8,0,0,0-3.4-2.3,33.9,33.9,0,0,0-6.4-.6h-6.6c1.6-5.2,3.2-10.5,4.5-15.8,1.9-7.8,3.9-15.7,5.8-23.5a8.2,8.2,0,0,0-.2-2.7l3.8.5a39.2,39.2,0,0,0,5.9-.2,33.1,33.1,0,0,1,4.4.2c2.2,0,4.2-1.5,3.9-3.9a5.5,5.5,0,0,0-1.9-3.2l-1.2-.9a5.9,5.9,0,0,0-3.2-.9l-1.9-.2a29.6,29.6,0,0,0-5.1-.6c-1.7-.1-3.4.1-5.1,0-3.9,0-8.9-.3-12.6.8a7,7,0,0,0-5,5,310.2,310.2,0,0,1-9.1,29.8c-3.4,9.5-7,19-9.3,28.9C263.3,79.1,263,80.4,262.8,81.8Z"/><path class="cls-1" d="M206.6,126.2a11.3,11.3,0,0,0,.8,2.4c1.9,4.7,6.4,5.9,11,6.5,1.9.3,4,0,5.2-1.5a5.4,5.4,0,0,0,1-2c2.6-6.3,5.4-12.7,8.4-18.8,1.2-2.7,2.4-5.6,3.4-8.3s1.4-3.6,2.2-5.3l2.7-6.7c2.9-7,5.9-14.2,8.4-21.5s4.2-12.4,6.2-19.2l1.3-4.6,1.4-4.6.6-1.9a54.1,54.1,0,0,0,1.8-7.2,4.3,4.3,0,0,0,.1-.5c0-1.8-1.5-3.3-2.8-4.1a5.8,5.8,0,0,0-4.3-.6,2.3,2.3,0,0,0-1.7,1.3c-2.7,5.2-3.7,11.7-5.3,17.2-3.4,11.3-6.5,22.6-10.4,33.6h.1l-.2.4-.3.8-.2.6h.1a10.7,10.7,0,0,0-.7,1.9l-4.2,10.6c-1.4,3.4-2.8,6.9-4.1,10.4s-2.5,6.4-3.6,9.1c0-.2.1-.4.1-.6v-1c.2-2.2.5-4.4.7-6.6s.6-4.9.8-7.4c.5-4.6.8-9.3,1.1-13.9v-.4c.2-3.5.4-7,.5-10.4,0-1.5.1-3.1.2-4.6.2-6.5.6-13.2.9-19.6.2-2.9.3-5.7.5-8.6s.6-8,.7-12a3.4,3.4,0,0,0,.1-1,6.7,6.7,0,0,0-.7-3.1,11.3,11.3,0,0,0-5-5.4c-3.6-2.1-10.3-3-12.5,1.5a10.4,10.4,0,0,0-.7,3.5c-.5,8.1-1.1,16.2-1.5,24.3l-.3,4.8c-.6,12.2-1.3,24.5-1.7,36.8-.2,6.2-.4,12.3-.5,18.5S205.4,120.7,206.6,126.2ZM236.1,82h0c0,.1-.1.1-.1.2Z"/><path class="cls-1" d="M180,184.4c0-2.5-.1-5-.2-7.6a29.5,29.5,0,0,0-1-5,9.6,9.6,0,0,0-6.2-6.8c-1.8-.5-4.6-.1-5.2,2l-.4,1.3-2.5,4.5c-1,2.1-2,4.2-2.9,6.3-2,4.3-3.9,8.7-6,13s-4.3,8.1-6.6,12.2a74.2,74.2,0,0,1-7.3,11.2,25.1,25.1,0,0,1-4.8,3.8l-2.2.5h-.8l-.7-.2-.5-.3-.7-.6-.4-.5-.7-1.5a25.8,25.8,0,0,1-.4-3.9,43,43,0,0,1,1.6-9.4c.7-3.1,1.6-6.2,2.6-9.2a123,123,0,0,1,7.6-16c1.6-3-.2-6.5-2.5-8.5a10.2,10.2,0,0,0-6.9-2.8,6,6,0,0,0-5.6,2.7,92.3,92.3,0,0,0-6.6,12.9,59,59,0,0,0-4.2,15.3q-.3,3.1-.3,6.3a18.5,18.5,0,0,0,.1,2.3,27.6,27.6,0,0,0,1.5,8.5,19.2,19.2,0,0,0,15.4,12.8,15.2,15.2,0,0,0,9.7-2.1,27.5,27.5,0,0,0,6-5.3,57.2,57.2,0,0,0,7.2-10.9v.9a19.5,19.5,0,0,0,1.9,7.8,12.5,12.5,0,0,0,7.8,6.6,10.3,10.3,0,0,0,5.5.1l2-.9h.5a2.6,2.6,0,0,0,1.9-2c.5-1.3.9-2.7,1.4-4.1s1-2.8,1.6-4.1a45.2,45.2,0,0,1,2.5-4.9c1.8-3.3,3.6-6.5,5.5-9.7s3.7-6,5.7-9a70.8,70.8,0,0,1,6.1-8.3c1.4-1.5,2.8-2.8,4.2-4.1a34.3,34.3,0,0,1,5.4-4,21.7,21.7,0,0,1,4.2-1.1h2.5c.1,0,.1,0,.1.1a10.4,10.4,0,0,1,.4,1,15.4,15.4,0,0,1,.4,3,44.6,44.6,0,0,1-2.9,12.5c-1.6,4.1-3.3,8.1-4.9,12.2a117.5,117.5,0,0,0-4.7,15.3c-1.1,4.7-2,9.4-2.9,14.1s-1.5,9.2-2,13.8-.7,10.5.7,15.5a22,22,0,0,0,3.7,7.9,41.9,41.9,0,0,0,4.9,5.4,11.5,11.5,0,0,0,10.1,2.3,14.3,14.3,0,0,0,3.4-1.4,16.4,16.4,0,0,0,2.4-2.1,35.6,35.6,0,0,0,7.7-10.8c.5-1.3,1-2.7,1.4-4.1s-1.1-3-2.2-3.6-4.5-1.1-5.1,1.2l-.6,2.2a31.7,31.7,0,0,1-5.4,9,12.4,12.4,0,0,1-3.6,2.9l-1.4.4h-.9l-1-1.4a5.2,5.2,0,0,1-.7-1.5,7.6,7.6,0,0,1-.1-1.5,28.1,28.1,0,0,1,.5-4.9c.4-2.2.7-4.5,1.1-6.8a121.2,121.2,0,0,1,2.9-13.3l1.9-7c.7-2.3,1.5-4.6,2.3-7,1.6-4.5,3.1-9,4.6-13.5a88.9,88.9,0,0,0,3.4-13.5c.4-2.4.8-4.9,1-7.4a52.8,52.8,0,0,0,.1-8.9,42.5,42.5,0,0,0-1.2-6,19.6,19.6,0,0,0-4.8-8.2,17.2,17.2,0,0,0-11-4.5,18.4,18.4,0,0,0-4.1.4l-1.8.5a26.9,26.9,0,0,0-4.5,1.6,25.5,25.5,0,0,0-3.8,2.6c-1.8,1.4-3.4,2.9-5,4.4s-3.3,3.5-4.7,5.3l-3.7,5.3c-1.8,2.7-3.5,5.5-5.1,8.3Z"/><path class="cls-1" d="M293.8,162.9a4.1,4.1,0,0,0,1.9-.5,2.2,2.2,0,0,0,.8-2.2c-.2-1.9-2.4-3.4-4.3-3.4s-5.8.1-8.7.2c-8.2.5-16.4.8-24.6,1.4a4.3,4.3,0,0,0-2.2.6,2.6,2.6,0,0,0-1.1,2.2v.4a4.7,4.7,0,0,0,1.6,2.7,5.1,5.1,0,0,0,3.7,1.5l10-.7c-.5,3.3-1.1,6.6-1.9,9.8s-2.3,8.8-3.2,13.3-1.3,9.1-1.8,13.6a105.1,105.1,0,0,0-.6,11.2c0,1.5,0,3,.1,4.5a5.2,5.2,0,0,0,1,2.3,7.7,7.7,0,0,0,3.9,2.7,5.8,5.8,0,0,0,3.2,0l1.2-.6a3.1,3.1,0,0,0,1.4-2c2.7-8.8,4.2-17.8,6.4-26.7,1.1-4.4,2.5-8.8,3.6-13.2s1.5-9.5,2.2-14.3a6.7,6.7,0,0,0-.1-2l3.7-.5Z"/><path class="cls-1" d="M295.8,206.2a78.9,78.9,0,0,0-.6,9.7c0,1.7.1,3.4.2,5.2v.9a5.2,5.2,0,0,0,.9,2,6.5,6.5,0,0,0,3.5,2.4,5.3,5.3,0,0,0,2.8.1l1.2-.5a3.5,3.5,0,0,0,1.2-1.9c.7-2.2,1.2-4.5,1.8-6.8l1.8-6.6c1-3.6,2-7.2,2.9-10.9h5.1a36.6,36.6,0,0,0,7.4-.1,118.3,118.3,0,0,0-1.8,19.7,22.6,22.6,0,0,0,.1,2.6,5,5,0,0,0,.8,2,7.3,7.3,0,0,0,3.4,2.4,5.3,5.3,0,0,0,2.8,0l1.1-.5a3.2,3.2,0,0,0,1.2-1.8c1.3-4,2.2-8.3,3.2-12.4s2.2-8.7,3.2-13.1,1.8-8.9,2.5-13.4c.3-2.3.7-4.7.9-7a67.6,67.6,0,0,0,.2-9,7.7,7.7,0,0,0-1.2-2.8,9.1,9.1,0,0,0-4.7-3.2,6.2,6.2,0,0,0-5.3.6l-1.2,1.3a3.9,3.9,0,0,0-.4,2.6v2.1a88.8,88.8,0,0,1-1.5,12.5l-1.8,9.5-1-.3c-1.9-.3-3.7-.7-5.7-.9l-4.6-.3h-.5c.6-2.6,1.1-5.2,1.7-7.7a121.7,121.7,0,0,0,2.4-14.7v-.5a5.3,5.3,0,0,0-.5-3.3,10.2,10.2,0,0,0-11-5.6c-1.7.5-3.5,1.9-3.6,3.8a128,128,0,0,1-2.3,15.1q-1.5,7.4-2.7,14.7C296.9,196.9,296.3,201.5,295.8,206.2Z"/><path class="cls-1" d="M343,219v0Z"/><path class="cls-1" d="M343,220Z"/><path class="cls-1" d="M345.5,226.8c1.8,1.7,4.3,2,6.6,2.1h5.8a60.5,60.5,0,0,0,6.1-.4h-.9l1.2-.2a2.5,2.5,0,0,0,1.7-.4,2,2,0,0,0,.7-1.9,3.9,3.9,0,0,0-3.8-3.1c-2.4.1-4.7.2-7,.1h-3.6c.1-.2.1-.5.2-.7l.6-2.8c.6-2.2,1.1-4.4,1.7-6.6,1.1-4.4,2.5-8.7,3.5-13.1l.3-1.3h2.3a47.6,47.6,0,0,0,6.5-.6,2.8,2.8,0,0,0,2.1-3.2,4.6,4.6,0,0,0-.8-1.9,6.4,6.4,0,0,0-3.2-2.2l-5.2-.8a125.4,125.4,0,0,0,2.2-19.3v-.9h2.2l4.3.2,4.7-.2a2.8,2.8,0,0,0,2-.5,2.4,2.4,0,0,0,1-2.3,5.3,5.3,0,0,0-1.4-2.4A5.9,5.9,0,0,0,372,163l-9.3-1-4.4-.4-5.3-.3a3.1,3.1,0,0,0-3.6,3c0,.1.1.2.1.4a2.7,2.7,0,0,0,.5,1.5h0c-.1,2.4-.2,4.8-.5,7.3s-.6,4.5-1,6.8c-.8,4.4-1.7,8.8-2.5,13.2s-1.7,8.5-2.1,12.8A124.2,124.2,0,0,0,343,220a12.4,12.4,0,0,0,.3,2.7A7.5,7.5,0,0,0,345.5,226.8Z"/><path class="cls-1" d="M117.7,358.4Z"/><path class="cls-1" d="M119.4,427l-.8-.2h-.7Z"/><path class="cls-1" d="M118,357.5h0a.3.3,0,0,1,.1-.2Z"/><path class="cls-1" d="M117.7,358.4Z"/><path class="cls-1" d="M117.7,358.4Z"/><path class="cls-1" d="M133.8,265.6a16.3,16.3,0,0,0-3.3-5.9,33.2,33.2,0,0,0-3.7-3.8,34.4,34.4,0,0,0-6.8-4.4,54,54,0,0,0-7.4-3.3,41,41,0,0,0-7.7-1.8,29.1,29.1,0,0,0-6.6-.1,38.9,38.9,0,0,0-8.3,1.4,48.8,48.8,0,0,0-6.5,2c-5,1.9-10,4.1-14.2,7.4a72.9,72.9,0,0,0-5.8,5.3c-2.2,2.3-4.3,4.6-6.3,7a101.6,101.6,0,0,0-8.4,11.9c-2.6,4.2-5.2,8.5-7.6,13s-4.4,9.1-6.4,13.8a112.8,112.8,0,0,0-5.3,15.8,59.5,59.5,0,0,0-1.9,14.5v1.3a44,44,0,0,0,.5,7.3,33.2,33.2,0,0,0,2.5,8.3A35.3,35.3,0,0,0,40.8,369a37,37,0,0,0,8.4,4.9,28.6,28.6,0,0,0,8.1,1.7,28.3,28.3,0,0,0,8.2-.4,29.9,29.9,0,0,0,8.5-3.5,36.2,36.2,0,0,0,6.1-4.1,64.4,64.4,0,0,0,5.6-4.8,115.8,115.8,0,0,0,10.4-11.7l1.9-2.5a121.6,121.6,0,0,0-3.4,18.8,160.9,160.9,0,0,0,.3,31.8,35.8,35.8,0,0,0,6.3,17.8,21.1,21.1,0,0,0,8.4,7l4.8,1.9a21,21,0,0,0,4.2.9,18.9,18.9,0,0,0,4.1.3,25.4,25.4,0,0,0,4.8-.9,18.2,18.2,0,0,0,7.8-4.9,87.4,87.4,0,0,0,10.1-11.8q8.8-12,16.8-24.6c3-4.9,6-9.7,8.9-14.6-.1,2.4-.2,4.7-.2,7.1v2.9a49,49,0,0,0,.8,7.6,33.7,33.7,0,0,0,2.9,8.8,27,27,0,0,0,5,7,37.1,37.1,0,0,0,5.4,4.2,34.9,34.9,0,0,0,7.4,3.9,28.8,28.8,0,0,0,7.7,1.8,21.9,21.9,0,0,0,3.6.3,24.2,24.2,0,0,0,4.7-.3,37.9,37.9,0,0,0,13.9-4.5,62.8,62.8,0,0,0,11.1-9.4c3.5-3.6,7-7.3,10.3-11.1a98.1,98.1,0,0,0,9.1-12.1c2.7-4.1,5-8.5,7.4-12.9,4.8-8.9,9.7-17.8,14-27.1a135.2,135.2,0,0,0,6.9-17.7l3.6,1a26.4,26.4,0,0,0,9.7.1,35.7,35.7,0,0,0,15-5.7l2-1.5-2,5.1a251.4,251.4,0,0,0-9.2,30.3,120.6,120.6,0,0,0-2.6,14.6c-.1,1.9-.2,3.8-.2,5.6a58.9,58.9,0,0,0,.9,10.3,39.2,39.2,0,0,0,2.3,8.1,35.1,35.1,0,0,0,4.4,7.5,29.1,29.1,0,0,0,7.5,6.5,25.8,25.8,0,0,0,8,3.4,26.1,26.1,0,0,0,6.2.6,18.7,18.7,0,0,0,5.7-1.2,26.9,26.9,0,0,0,8-5,41.9,41.9,0,0,0,6.5-6.8,39,39,0,0,0,5-8.9,3.5,3.5,0,0,0-1.2-4.2,5.1,5.1,0,0,0-3.3-1.3,2.9,2.9,0,0,0-2.8,1.3c-1.1,2.2-2.2,4.4-3.4,6.6a30,30,0,0,1-3.7,4.9,31.6,31.6,0,0,1-7.3,5.8,20.1,20.1,0,0,1-3.5,1h-3l-2.7-.7-2.3-1.4-2.1-1.8a8.3,8.3,0,0,1-.8-1.2,12.2,12.2,0,0,1-1-2.4,55,55,0,0,1-1.4-13.4,76.5,76.5,0,0,1,1.8-15.8,144.6,144.6,0,0,1,4.6-15.9c2.7-7.3,5.7-14.5,8.9-21.5,1.7-3.7,3.4-7.4,5.2-11s4-7.8,6.1-11.7-.1-7.6-2.9-10a12.9,12.9,0,0,0-8.1-3.4,9.5,9.5,0,0,0-4.6,1.1c-5,3.1-9.2,8.3-13.8,12.2a77.8,77.8,0,0,1-12.6,8.6,43.5,43.5,0,0,1-6.1,2c-1,.3-2.1.4-3.1.6h-4.3l-1-.3c.2-1,.5-2,.8-3,1.2-4.8,2.4-9.7,3.4-14.6s2-10.2,1.9-15.3a20,20,0,0,0-.2-3.5c-.1-1-.3-2-.5-3a21.6,21.6,0,0,0-2.2-4.9,15,15,0,0,0-6.3-5.4,17,17,0,0,0-5.3-1.6,11.9,11.9,0,0,0-5.3.5,16.9,16.9,0,0,0-4.3,2,14.4,14.4,0,0,0-3.7,3.3,27.5,27.5,0,0,0-3.6,5.3,35.4,35.4,0,0,0-2.5,6.4,23.9,23.9,0,0,0-.9,9.2,34.2,34.2,0,0,0,2.4,9.4,33.7,33.7,0,0,0,4.5,7.8,70.9,70.9,0,0,0,5.7,6.6l2.8,2.7,2.3,1.8c-.6,1.8-1.1,3.6-1.8,5.4-1.6,4.6-3.5,9.2-5.5,13.7s-4.1,8.9-6.3,13.3c-4.6,9.1-9.2,18.3-14.7,26.9a112.6,112.6,0,0,1-8.4,10.9c-2.8,3.3-5.6,6.4-8.5,9.6s-7.7,8.1-12.7,10.7a30.3,30.3,0,0,1-6.6,1.6,25.7,25.7,0,0,1-6.2,0,30.4,30.4,0,0,1-5.7-1.6l-2.5-1.4a41.3,41.3,0,0,1-3.9-3.4l-1-1.5a11.9,11.9,0,0,1-1.1-2.6,36.5,36.5,0,0,1-.9-7.4,122.9,122.9,0,0,1,3.5-24.1c1-4.1,2.2-8.3,3.4-12.4s2.3-7.4,3.5-11,3.5-9.3,5.3-13.8a6,6,0,0,0,.6-3.7,9.4,9.4,0,0,0-3.2-5.5,12,12,0,0,0-7.4-3.1l-2.5.3a5.5,5.5,0,0,0-3.6,2.7l-6,14.8c-2.1,3.9-4,7.8-6,11.7s-4.4,8.7-6.7,13c-4.7,8.9-9.7,17.7-15.1,26.2-3,4.7-6.3,9.3-9.7,13.8s-6.5,8.5-10,12.5-5.5,5.8-8.9,7.7a13.8,13.8,0,0,1-2.7.8h-2.7l-3.1-1-2.2-1.2-1.1-1a8.3,8.3,0,0,1-.8-1.2,30,30,0,0,1-1.6-3.6,32.7,32.7,0,0,1-.7-6.2,140.1,140.1,0,0,1,2.9-22.4,172.9,172.9,0,0,1,5.8-23.6l-.3.9.3-.9v.3c0-.1.1-.2.1-.3h0l.3-.8c-.1.2-.1.4-.2.5s.1-.3.2-.5h0a4.9,4.9,0,0,0,.4-1.1l-.3,1v-.2c-.1.4-.3.8-.4,1.2,1.8-4.6,4-9.1,6.1-13.6s4.1-8.9,6.2-13.3c4.6-9.7,9-19.4,12-29.7a36.4,36.4,0,0,0,1.5-7.3c.3-2.6.4-5.2-.8-7.7s-3.1-4.4-5.6-4.9a6.6,6.6,0,0,0-4.8.5,25.5,25.5,0,0,0,2.3-8.6A22.7,22.7,0,0,0,133.8,265.6ZM270,297.8a27.8,27.8,0,0,1-2.4-5.6,31.1,31.1,0,0,1-1-6.1,27.1,27.1,0,0,1,1.6-7.9,24.4,24.4,0,0,1,4-7,12.3,12.3,0,0,1,3.1-2.4l1.4-.4h.3l.7.2.4.3.4.3.7.9.7,1.6a28.5,28.5,0,0,1,.6,4.9c-.1,7.2-1.7,14.2-3.4,21.1-.6,2.4-1.2,4.8-1.9,7.2A76.3,76.3,0,0,1,270,297.8Zm-145.2-5.3-2.7,3.9c-2.9,4.1-5.5,8.4-8,12.8l-2.5,4.7-4.5,7c-3.5,5.4-7.3,10.6-11.2,15.8s-7.4,10.1-11.4,14.9a92.6,92.6,0,0,1-8.5,8.1,49.1,49.1,0,0,1-5.1,3.9,26.4,26.4,0,0,1-4.6,2.7l-2,.8a13.1,13.1,0,0,1-3.4.9,31.3,31.3,0,0,1-5.3-.1,30.4,30.4,0,0,1-4-1.2l-2-1.2a19.4,19.4,0,0,1-2.6-2.3,18.6,18.6,0,0,1-2.1-2.8,27.1,27.1,0,0,1-1.7-3.9,26.1,26.1,0,0,1-1-6.9c.3-7.1,2.3-13.9,4.6-20.6,1.7-4.5,3.7-8.8,5.8-13.1s4.3-9.1,6.7-13.5,4.8-8.4,7.2-12.5,5.2-8.6,7.9-12.8a109.2,109.2,0,0,1,7.2-9.6,36,36,0,0,1,5.9-5.1,40.9,40.9,0,0,1,6.4-3.7,47.8,47.8,0,0,1,4.8-1.9,38.4,38.4,0,0,1,4.6-1.1,28.9,28.9,0,0,1,5.9.2,32.4,32.4,0,0,1,5.3,1.6,60.2,60.2,0,0,1,5.6,3l2.7,2.4,1.1,1.4c.4.9.8,1.8,1.1,2.7s.4,2.6.5,3.9a26.2,26.2,0,0,1-1.2,6.2,45.4,45.4,0,0,1-3.2,6.2c-.9,1.7.1,3.6,1.3,4.7a6.3,6.3,0,0,0,4.4,1.6Z"/><path class="cls-3" d="M314,258a10.3,10.3,0,1,0-10.3-10.3A10.4,10.4,0,0,0,314,258Z"/><path class="cls-3" d="M43.5,254.6a8.5,8.5,0,1,0-8.4-8.4A8.5,8.5,0,0,0,43.5,254.6Z"/><path class="cls-3" d="M134.3,402.7a2.2,2.2,0,0,0,2.2-2.2,2.3,2.3,0,1,0-2.2,2.2Z"/><path class="cls-3" d="M184,154.6a1.9,1.9,0,1,0-1.9-1.8A1.9,1.9,0,0,0,184,154.6Z"/><path class="cls-3" d="M182.9,239.8a2.2,2.2,0,0,0-2.2-2.2,2.1,2.1,0,0,0-2.1,2.2,2.1,2.1,0,0,0,2.1,2.1A2.2,2.2,0,0,0,182.9,239.8Z"/><path class="cls-3" d="M251.6,234.4a5.4,5.4,0,1,0-5.4,5.4A5.4,5.4,0,0,0,251.6,234.4Z"/><path class="cls-3" d="M153.6,263.3a4.5,4.5,0,1,0,4.5-4.6A4.5,4.5,0,0,0,153.6,263.3Z"/><circle class="cls-3" cx="276.8" cy="390.7" r="4.8"/><path class="cls-3" d="M328.3,140.8A10.3,10.3,0,1,0,318,130.5,10.3,10.3,0,0,0,328.3,140.8Z"/><path class="cls-3" d="M105.7,177a6.6,6.6,0,0,0,6.6-6.5,6.7,6.7,0,0,0-6.6-6.6,6.6,6.6,0,0,0-6.5,6.6A6.5,6.5,0,0,0,105.7,177Z"/><path class="cls-3" d="M74.9,333.2a6.7,6.7,0,0,0,6.6-6.6,6.6,6.6,0,0,0-13.2,0A6.7,6.7,0,0,0,74.9,333.2Z"/><path class="cls-3" d="M24.6,312.3a2,2,0,1,0-1.9,2A2,2,0,0,0,24.6,312.3Z"/><path class="cls-3" d="M296.5,98.2a5.2,5.2,0,0,0,5.2-5.1,5.3,5.3,0,0,0-5.2-5.2,5.2,5.2,0,0,0-5.1,5.2A5.1,5.1,0,0,0,296.5,98.2Z"/><path class="cls-3" d="M96.1,222a4.7,4.7,0,0,0-4.7,4.7,4.7,4.7,0,1,0,9.3,0A4.7,4.7,0,0,0,96.1,222Z"/><path class="cls-3" d="M391.2,214.7a1.9,1.9,0,1,0,1.9,1.9A2,2,0,0,0,391.2,214.7Z"/><circle class="cls-3" cx="351.5" cy="344.1" r="3.3"/><path class="cls-3" d="M224.2,367.6a1.9,1.9,0,1,0,1.9-1.8A1.9,1.9,0,0,0,224.2,367.6Z"/><path class="cls-3" d="M143.7,340.9a4.8,4.8,0,1,0,4.8-4.8A4.9,4.9,0,0,0,143.7,340.9Z"/><circle class="cls-3" cx="100.7" cy="147" r="4.2"/><path class="cls-3" d="M27.6,115.7a1.9,1.9,0,1,0-1.9-1.9A1.9,1.9,0,0,0,27.6,115.7Z"/><circle class="cls-3" cx="99.2" cy="59.5" r="1.9"/><path class="cls-3" d="M193.9,21.5a1.8,1.8,0,0,0,1.9-1.9,1.8,1.8,0,0,0-1.9-1.8,1.9,1.9,0,1,0,0,3.7Z"/><path class="cls-3" d="M301.7,284.9a1.9,1.9,0,1,0-1.9-1.9A2,2,0,0,0,301.7,284.9Z"/><circle class="cls-3" cx="96.1" cy="293.7" r="1.9"/><path class="cls-3" d="M63.7,101.4a3.2,3.2,0,1,0-3.2-3.2A3.3,3.3,0,0,0,63.7,101.4Z"/><circle class="cls-3" cx="187.3" cy="125.3" r="6.6"/><circle class="cls-3" cx="130.4" cy="76" r="5.1"/><circle class="cls-3" cx="256.3" cy="138.7" r="2.3"/><path class="cls-3" d="M236,158.5a5.8,5.8,0,1,0-5.7-5.7A5.8,5.8,0,0,0,236,158.5Z"/><path class="cls-3" d="M293.6,138.7a3,3,0,0,0,5.9,0,3,3,0,1,0-5.9,0Z"/><circle class="cls-3" cx="5.8" cy="275" r="5.7"/><circle class="cls-3" cx="5.6" cy="375.1" r="5.6"/><path class="cls-3" d="M58.9,385.9a2.4,2.4,0,1,0,2.4-2.4A2.4,2.4,0,0,0,58.9,385.9Z"/><path class="cls-3" d="M240.9,318.4a5.8,5.8,0,0,0-5.7,5.7,5.7,5.7,0,0,0,5.7,5.6,5.6,5.6,0,0,0,5.6-5.6A5.7,5.7,0,0,0,240.9,318.4Z"/><path class="cls-3" d="M359.6,267.2a7.9,7.9,0,1,0,8,7.9A8,8,0,0,0,359.6,267.2Z"/><circle class="cls-3" cx="352.2" cy="255.6" r="3.1"/><path class="cls-3" d="M288.3,412.3a2.6,2.6,0,0,0-2.6,2.5,2.6,2.6,0,0,0,2.6,2.6,2.6,2.6,0,0,0,2.5-2.6A2.5,2.5,0,0,0,288.3,412.3Z"/><path class="cls-3" d="M96.5,37.6a4.2,4.2,0,1,0-4.2-4.2A4.2,4.2,0,0,0,96.5,37.6Z"/><path class="cls-3" d="M351.5,89.4a3.7,3.7,0,0,0-3.6,3.7,3.6,3.6,0,0,0,3.6,3.6,3.7,3.7,0,0,0,3.7-3.6A3.8,3.8,0,0,0,351.5,89.4Z"/></g></g></svg>