<svg xmlns="http://www.w3.org/2000/svg" viewBox="0 0 505.6 347.5"><defs><style>.cls-1{fill:#132530;}.cls-2{fill:#fff;}.cls-3{fill:#b24630;}</style></defs><g id="Layer_2" data-name="Layer 2"><g id="_ëîé_1" data-name="‘ëîé_1"><path class="cls-1" d="M162.3,231.8a43.5,43.5,0,0,0-5.3-15.3,45.5,45.5,0,0,0-12.7-14.2,77.7,77.7,0,0,0-14.1-8.5l-.7-.4a62.8,62.8,0,0,0-9.9-4.5,42.9,42.9,0,0,0-10-2.4,78.9,78.9,0,0,0-8.5-.8,43.2,43.2,0,0,0-10.1.9,80.2,80.2,0,0,0-8.2,1.8,49.2,49.2,0,0,0-8.5,2.6,52.6,52.6,0,0,0-16,9.8,64.8,64.8,0,0,0-7.1,7.7,79.1,79.1,0,0,0-4.8,7,56.2,56.2,0,0,0-3.8,7.8,92.4,92.4,0,0,0-3.1,9.8,38.7,38.7,0,0,0-1.2,8.2V244c0,1,0,2,.1,3a37.7,37.7,0,0,0,2,9.3,57.8,57.8,0,0,0,9.8,16.8c1.2,1.4,2.5,2.7,3.8,4a30.9,30.9,0,0,0,4.5,3.6,44.2,44.2,0,0,0,8.9,4.6c5.2,2.2,10.6,4,15.8,6.1a71.9,71.9,0,0,0,7.9,2.4l3.8,1.1c1.8.4,3.6.6,5.5.9a58.5,58.5,0,0,0,8.3.9,54.8,54.8,0,0,0,8.1.1c6.5-.5,12.5-3.1,18.1-6.3a46.9,46.9,0,0,0,12.5-11,64.9,64.9,0,0,0,8.4-14.1,76.5,76.5,0,0,0,5.6-16.5,70.5,70.5,0,0,0,1.3-7.8A41.2,41.2,0,0,0,162.3,231.8ZM71.1,215h0l-.6.5Z"/><path class="cls-2" d="M104,227.1a18.3,18.3,0,0,0,.7-3.2,9.5,9.5,0,0,0,0-4.1,14.5,14.5,0,0,0-.9-2.2,9.3,9.3,0,0,0-3.3-3.5,10.9,10.9,0,0,0-3.3-1.5,13.6,13.6,0,0,0-15.3,6.7,18.1,18.1,0,0,0-1.6,4.2,17.4,17.4,0,0,0-.5,3.9,25.8,25.8,0,0,0,.4,4,22.9,22.9,0,0,0,.7,3.6c.9,3.7,2.2,7.2,2.8,11a10.5,10.5,0,0,1,0,2.5,16,16,0,0,1-.5,2.1l-.6,1.1-1,.9a4.1,4.1,0,0,1-1.1.7l-1.4.4H77.9l-1-.3-.7-.4H76a2.5,2.5,0,0,0-.4-.7c-.1-.6-.3-1.2-.4-1.8s-.1-.7-.1-1.1a5.4,5.4,0,0,0-1.3-2.2,4.9,4.9,0,0,0-3.6-1.5,4.7,4.7,0,0,0-3.5,1.5,4.8,4.8,0,0,0-1.5,3.2v.3c.2,1.3.3,2.5.6,3.7a12.2,12.2,0,0,0,1.4,3.3,6.4,6.4,0,0,0,1.3,1.9,14.3,14.3,0,0,0,2.3,2,13,13,0,0,0,3.8,1.7,9.8,9.8,0,0,0,2.9.5,4.3,4.3,0,0,0,1.6,0,17.6,17.6,0,0,0,4-.7,14.9,14.9,0,0,0,8.3-6.5,16.4,16.4,0,0,0,2.4-8.4,28.4,28.4,0,0,0-.9-7.2c-.9-3.9-2.3-7.6-3-11.5a16,16,0,0,1,0-3.1,6.5,6.5,0,0,1,.4-1.3,6.4,6.4,0,0,1,.8-1.4l.7-.8.7-.4.7-.2h.9l.6.2h.1a11.7,11.7,0,0,1-.5,2,5,5,0,0,0,3.5,6.2A5.2,5.2,0,0,0,104,227.1Z"/><path class="cls-2" d="M139.2,230.2a15,15,0,0,0-1.9-2.5,6.1,6.1,0,0,0-2.4-1.8l-3.4-1.4a4.6,4.6,0,0,0-1.7-.9,28.2,28.2,0,0,0-5.8-1c-2.6-.1-5.2,1.3-7.3,2.8a21.4,21.4,0,0,0-3.2,2.8,32.6,32.6,0,0,0-2.9,3.6c-1.5,2-2.8,4.2-4.1,6.3s-2.2,4-3.2,6.1a70.5,70.5,0,0,0-3,7.6,22.5,22.5,0,0,0-.9,3.5,31.5,31.5,0,0,0-.5,4.3v.6a19.7,19.7,0,0,0,.5,3.5,23.4,23.4,0,0,0,.9,2.4,13.7,13.7,0,0,0,3,4.5,11.8,11.8,0,0,0,2.5,1.9l1.3.8a13.5,13.5,0,0,0,3.4,1.1,21.9,21.9,0,0,0,3.6.3,17.4,17.4,0,0,0,9-3.1,30.7,30.7,0,0,0,3.5-2.8c1.1-1.1,2-2.3,3-3.5a57.4,57.4,0,0,0,6.2-11.1h.1a11.7,11.7,0,0,0,.5-1.1c0-.2.1-.3.1-.4h.1c.8-1.9,1.6-3.9,2.3-5.9a32.2,32.2,0,0,0,1.4-7,19.3,19.3,0,0,0,.1-4.8A11.6,11.6,0,0,0,139.2,230.2Zm-8.9,9a29.2,29.2,0,0,1-1.2,4.9l-1.8,4.7a11.7,11.7,0,0,0-.5,1.1c-.3.7-.6,1.5-1,2.3a71.2,71.2,0,0,1-4.9,8,34.4,34.4,0,0,1-2.7,2.7l-2.4,1.3-1.2.4h-2.1l-.8-.2-1.1-.7-.5-.6-.8-1.3-.3-1.2v-2.5a35.6,35.6,0,0,1,2.5-7.6,68.7,68.7,0,0,1,8-13.9,15.3,15.3,0,0,1,2.8-2.9l1.6-1h.9l1.8.4a3,3,0,0,0,1.6.8h.4l.8.4.8.4.2.2v.2A26.7,26.7,0,0,1,130.3,239.2Z"/><path class="cls-3" d="M503.3,120.7l-1.4-3-.8-1.2a10.5,10.5,0,0,0-1.4-1.7,8.6,8.6,0,0,0-1.8-1.4l-.6-.7-2.1-1.6a7.2,7.2,0,0,0-2.1-1.2l-2.6-1.2-2.2-.7-3.3-.8a56.2,56.2,0,0,0-5.8-.2l-5.6.4a37.6,37.6,0,0,0-6.7,1.2l-3.2.9-2.9,1.1a12.1,12.1,0,0,0-2,.9,15.5,15.5,0,0,0-2.9,1.4,63.6,63.6,0,0,0-11.9,8l-2.7,2.3-2.6,2.4c-1.6,1.7-3.3,3.4-4.8,5.3a59.5,59.5,0,0,0-8.1,11.7c-2.1,4.3-4.7,8.4-6.4,12.9-.9,2.2-1.7,4.5-2.6,6.7s-1.6,4.1-2.2,6.3-1.3,4.6-1.9,6.9-1.1,4.5-1.5,6.8a42.5,42.5,0,0,0-.6,7.1v.7a2.3,2.3,0,0,0,1.2,2l.2.2a2.4,2.4,0,0,0,1.6.7,2.1,2.1,0,0,0,1.5-.7,2.2,2.2,0,0,0,.7-1.6c0-.4.1-.8.1-1.2a33.5,33.5,0,0,1,1.7-6.2l2.5-6.6c1-2.2,2.1-4.3,3.2-6.3s2.5-3.9,3.9-5.8A69.4,69.4,0,0,1,438,153a58.2,58.2,0,0,1,6.6-4.4,27.5,27.5,0,0,1,3.8-2L452,145a50.7,50.7,0,0,1,6.5-2.4,42.9,42.9,0,0,1,7.1-1.6,79,79,0,0,1,8.5-.7h4.4l4.4.4a54.8,54.8,0,0,1,5.6,1,31.6,31.6,0,0,1,5.2,1.7l1.7.8a2,2,0,0,0,.6.9,3.1,3.1,0,0,0,2.1.9,3.1,3.1,0,0,0,2-.9l1.1-1.1,1.7-2.4a13.7,13.7,0,0,0,1.3-3.1,24.9,24.9,0,0,0,1.4-7.1,20.4,20.4,0,0,0-.9-7C504.3,123.1,503.8,121.9,503.3,120.7ZM424,156h0c0-.1,0-.2.1-.2h0A.4.4,0,0,0,424,156Zm.1-.3h0v0Zm74.8-14Z"/><path class="cls-3" d="M422.2,123.3a2.3,2.3,0,0,0,1.8.2,1.7,1.7,0,0,0,1-.7l.6-.2a2.6,2.6,0,0,0,1-1.3l.6-1.6c.6-1.4,1.3-2.7,2-4s1.7-2.6,2.6-3.8,2.1-2.5,3.2-3.7,2.3-2.1,3.5-3.1l4.7-3.2a41.6,41.6,0,0,1,4.7-2.4l3-1.2,3.3-.9c1-.3,2.1-.4,3.1-.6l1-.2a3.2,3.2,0,0,0,2.1-2.2,5.7,5.7,0,0,0-.8-4.4l-.7-1.2-1.4-1.6L456,86l-1.5-1a28.2,28.2,0,0,0-2.9-1.8l-3.3-1.5a15.1,15.1,0,0,0-3.7-.7h-3.2a14.5,14.5,0,0,0-4.2,1.2,21.4,21.4,0,0,0-5.8,4,22.5,22.5,0,0,0-4.5,5.2,52.8,52.8,0,0,0-3,5.8,36.3,36.3,0,0,0-2.1,6.6,30.3,30.3,0,0,0-.6,3.2c-.2,1.2-.3,2.5-.4,3.8s-.2,4-.2,5.9h0c0,1.2.1,2.3.2,3.5a13.6,13.6,0,0,0,.4,1.7A2.6,2.6,0,0,0,422.2,123.3Zm33.7-30.8h0v0Z"/><path class="cls-3" d="M28.9,148.9c2.1,1.2,4.3,2.1,6.5,3.1a58.9,58.9,0,0,0,7,2.6c2.3.8,4.7,1.3,7,1.9s4.6,1,6.9,1.3,4.9.9,7.4,1.1,4.8.2,7.2.2a96.9,96.9,0,0,0,14.2-1A92.2,92.2,0,0,0,98.7,155l3.3-1.2,3.5-1.7a19.6,19.6,0,0,0,3.2-1.7,21.8,21.8,0,0,0,3.1-2.2l.9-.9a2.2,2.2,0,0,0,0-3.1,2.4,2.4,0,0,0-1.6-.7H96.2c-2.2,0-4.5-.1-6.7-.3s-4.3-.4-6.5-.7-6.4-1-9.6-1.8l-4.7-1.3c-1.4-.4-2.7-1-4-1.5l-4.4-2L56,133.5c-2.8-1.8-5.6-3.6-8.3-5.5a34.7,34.7,0,0,1-3.4-3.2l-3.5-3.7c-2.2-2.4-4.3-4.9-6.4-7.4L31.7,110l-3-4.3a59.2,59.2,0,0,1-4.3-8.3,42.6,42.6,0,0,1-2.5-9.3,19.4,19.4,0,0,0-.2-2.4,2.2,2.2,0,0,0-2.2-2.3,1.6,1.6,0,0,0-.9.3H18l-3.2.8a32.7,32.7,0,0,0-3.3,1.4,30.7,30.7,0,0,0-5.6,3.8,16.9,16.9,0,0,0-2.6,2.8L2,94.2A14.5,14.5,0,0,0,.9,97.1,17.6,17.6,0,0,0,.3,101L0,104.3v1.2A49.1,49.1,0,0,0,.4,111c.2,1.3.3,2.5.6,3.7s.5,2.2.8,3.3a43.5,43.5,0,0,0,2,6.1,46.2,46.2,0,0,0,3.3,6.7,30,30,0,0,0,4.4,5.7,54.7,54.7,0,0,0,5,4.7,43.1,43.1,0,0,0,6.3,4.2C24.8,146.6,26.8,147.8,28.9,148.9Zm74.7-.8h0Zm-95-23.9h0c.1.1.1.1.1.2S8.7,124.3,8.6,124.2Zm0-.2H8.5a10.1,10.1,0,0,1,.7,1.5Zm8.8-35.6h0Z"/><path class="cls-3" d="M67.2,114.3c.7,1.1,1.5,2.1,2.3,3.2a17.5,17.5,0,0,0,2.4,2.3,27.7,27.7,0,0,0,5.5,4l2.8,1.6,3.4,1.6,2.9,1.1,3,1.2a48.8,48.8,0,0,0,6.5,2,46.2,46.2,0,0,0,6.5.7h5.8l1.7-.2.4-.2a2.4,2.4,0,0,0,1.7-1.2,2.5,2.5,0,0,0-1-3.5,5.3,5.3,0,0,0-1.8-.5h-1.4a2,2,0,0,0-1.2-.8l-3.1-.5-2.9-.9-1.7-.9-2.1-1.2-3.4-2.5-3-2.5a26.1,26.1,0,0,1-2.7-3c-1.1-1.5-2.3-3.1-3.3-4.7a48.2,48.2,0,0,1-2.7-5c-.4-1-.8-2-1.1-3l-.6-3a3.8,3.8,0,0,0-1.3-2.2,4.6,4.6,0,0,0-2.2-1.1,8.9,8.9,0,0,0-4.3,0A9.2,9.2,0,0,0,69,97a6.9,6.9,0,0,0-1.3,1.1,11.4,11.4,0,0,0-1.5,2.3,9.8,9.8,0,0,0-.8,1.8,8.8,8.8,0,0,0-.5,1.5,12.4,12.4,0,0,0-.3,2.7,2.8,2.8,0,0,0,.1.9,12.3,12.3,0,0,0,.8,3.8A19.6,19.6,0,0,0,67.2,114.3Zm23.1,8.4h0l-.8-.6Zm-1,1.7h0Z"/><path class="cls-3" d="M67.9,177.6h.2l1.7-1.4.9-.8a2.9,2.9,0,0,0,1.4-3,2.5,2.5,0,0,0-1.6-1.6h-.8a2.3,2.3,0,0,0-1.8-.3,40.3,40.3,0,0,1-5,1.1,80.6,80.6,0,0,1-8.5.4,86.4,86.4,0,0,1-8.8-.4l-2.3-.4-2.6-.7-4.6-1.6a32.5,32.5,0,0,1-5.7-3.3l-1.1-.8a3.4,3.4,0,0,0-3.1-.4,6.1,6.1,0,0,0-2.8,2.9,8.7,8.7,0,0,0-.7,1.7,11.8,11.8,0,0,0-.4,2,9.7,9.7,0,0,0-.1,1.7h0a13.6,13.6,0,0,0,.2,2.1,20.1,20.1,0,0,0,2.1,6.4,20.1,20.1,0,0,0,2.2,2.9,14.1,14.1,0,0,0,2.9,2.5l3.5,1.6a20.9,20.9,0,0,0,3.6.7h3.1l3.9-.3a47.1,47.1,0,0,0,6.2-1.6,80.9,80.9,0,0,0,10.5-4.5l4-2.4,3.5-2.4Zm-40.6-8.3c.1-.2.2-.3.2-.5h.1Zm26.2,11.5h0Zm-.2,0h-.2l2.1-1Zm9.2-4.9h0Z"/><path class="cls-1" d="M151.1,50.2a51.1,51.1,0,0,0-1.8-7.5,22.7,22.7,0,0,0-3.4-7,14.2,14.2,0,0,0-4.7-4.1,13.9,13.9,0,0,0-6-1.7,9.3,9.3,0,0,0-2.9.2l-1.9-.2a30.7,30.7,0,0,0-5.3.5c-3.1.7-5.9,2.4-8.5,3.9-5.2,2.9-9.5,7.3-13.1,11.9a22,22,0,0,0-2.1,3.2,37.2,37.2,0,0,0-2.2,3.8c-1.1,2.3-2.2,4.7-3.1,7.1-2,5.2-3.9,10.6-4.3,16.2,0,1-.1,2.1-.1,3.1s.1,2.5.2,3.8a15.3,15.3,0,0,0,.7,2.9A28.3,28.3,0,0,0,94,90.4,25.3,25.3,0,0,0,96,94l1.5,2.2a29,29,0,0,0,5.7,5.9c1.7,1.3,4.4,2.4,6.4.9a2.7,2.7,0,0,0,1.1-2.7,5.4,5.4,0,0,0-1.7-2.9h-.1l-1.1-1.6a17.3,17.3,0,0,1-1.6-3.7,21,21,0,0,1-.7-5.6,58.8,58.8,0,0,1,1.1-9.4,53.1,53.1,0,0,1,2.4-8.9,72.3,72.3,0,0,1,5.5-11.6,87.7,87.7,0,0,1,8-11.2,29.5,29.5,0,0,1,7.6-5.5,4.7,4.7,0,0,0,3.3.1h.5a5.7,5.7,0,0,1,.1,1.3c-.1,2.2-.3,4.4-.5,6.5l-.6,7.7a108.4,108.4,0,0,0-.7,18,54.4,54.4,0,0,0,1.1,8.1c.5,1.9,1,3.8,1.6,5.7a28.7,28.7,0,0,0,1.5,3.7,45.2,45.2,0,0,0,3.2,5.2,30.8,30.8,0,0,0,6.4,6.1,30,30,0,0,0,4.6,2.6,56.2,56.2,0,0,0,5.3,1.9c3.7.9,7.2,1.4,10.9.5a19.5,19.5,0,0,0,5.1-2.3,15.4,15.4,0,0,0,3.4-2.8,45.7,45.7,0,0,0,9-14.2l.9-2.4c.3,4.7.8,9.4,1,14.1s.5,11,.9,16.6.6,8.6.7,13l-2.9.8c-2.6.6-5.2,1-7.7,1.7-5.2,1.4-10.4,2.8-15.4,4.6a46.8,46.8,0,0,0-4.5,1.9c-1.3.6-2.4,1.5-3.6,2.1a77.4,77.4,0,0,0-6.7,4.4,20.8,20.8,0,0,0-3.4,3.2,15,15,0,0,0-2.3,3.3,14.5,14.5,0,0,0-1.1,2.9,17,17,0,0,0-.5,5,19.1,19.1,0,0,0,2,7.7c1.9,4.4,6,7.7,10.3,9.7a39.7,39.7,0,0,0,9,3,50.4,50.4,0,0,0,5.6.7,18.1,18.1,0,0,0,4-.4l2.6-.5a32.5,32.5,0,0,0,8.1-3.5c5-2.7,9-7,12.7-11.2a61.5,61.5,0,0,0,9.7-14,40.2,40.2,0,0,0,3.2-9,61,61,0,0,0,1.1-8.3,17.7,17.7,0,0,1,.1-2.3,54.6,54.6,0,0,0,7.1-5.6,73.6,73.6,0,0,0,7.2-7.6l2-2.4.3.6c2.5,4.8,5.9,9.1,11,11.3a16.2,16.2,0,0,0,4.8,1.7c1.2.2,2.4.5,3.7.6a28.1,28.1,0,0,0,4.1.1l3.1-.3a14.6,14.6,0,0,0,4.6-1.5,18,18,0,0,0,5.4-4.1,53.6,53.6,0,0,0,5.5-7.7c1.4-2.3,2.5-4.8,3.7-7.3s2.2-5.1,3.2-7.7,1.9-5.5,2.6-8.3a31.5,31.5,0,0,0,7.5.4,26.2,26.2,0,0,0,5.6-.9l1.1-.4a34,34,0,0,0,1.7,7c.4,1.1.9,2.3,1.4,3.4a16.2,16.2,0,0,0,1,1.8,11,11,0,0,0,1.5,2.6,18.1,18.1,0,0,0,2.5,3,23,23,0,0,0,4.7,3.5,34.7,34.7,0,0,0,5.9,2.7,24.7,24.7,0,0,0,4.7,1.1,23.5,23.5,0,0,0,5.3-.1,33.9,33.9,0,0,0,13.7-5,35.1,35.1,0,0,0,7.1-6.2c-.1,2.1-.2,4.2-.2,6.3a59.5,59.5,0,0,0,1,11.1,27.5,27.5,0,0,0,4.8,10.4c2.3,3,5.3,5.1,8.4,7.2a45.5,45.5,0,0,0,7.9,4.1,32.2,32.2,0,0,0,6.9,2,30.6,30.6,0,0,0,7.4.9c2.8-.2,5.7-.3,8.3-1.4a29.1,29.1,0,0,0,7.9-4.4,44,44,0,0,0,6-6.2,21.2,21.2,0,0,0,2.9-4.8,26.4,26.4,0,0,0,1.4-5.7,60.2,60.2,0,0,0,.3-7.4,8.3,8.3,0,0,0-.7-3.4,9.4,9.4,0,0,0-2.3-3.3,6.4,6.4,0,0,0-1.9-1.3h0c-1.7-1.5-4.8-2.5-6.8-1s-1.3,3.6-.2,5.1l.6.9,1.1,1.1h.1v.4a39,39,0,0,1-1.8,10.2,30.5,30.5,0,0,1-2.1,4,48.7,48.7,0,0,1-3.7,5.2,25.9,25.9,0,0,1-5.5,4.4l-2.7.7a26.2,26.2,0,0,1-5.6-.1,34.8,34.8,0,0,1-6.3-1.8,5.6,5.6,0,0,1-1.7-.9,20.4,20.4,0,0,1-2.7-2.3,24,24,0,0,1-1.8-2.6c-.2-.5-.5-1-.7-1.6a40.1,40.1,0,0,1-.9-5,34,34,0,0,1-.3-4.5,100.3,100.3,0,0,1,3.4-22.5c1-3.5,2.2-6.8,3.1-10.3s2.3-8.2,3.5-12.2a6.9,6.9,0,0,0-.5-4,11.7,11.7,0,0,0-4.9-5.2,10.7,10.7,0,0,0-8.2-1.3l-2.1,1a5.1,5.1,0,0,0-2.2,3.5c-1.1,3.4-2.1,6.8-3.2,10.1s-2.2,4.1-3.4,6a92.5,92.5,0,0,1-8.9,11.7,53.3,53.3,0,0,1-5.4,5.2,30.5,30.5,0,0,1-5.8,3.8A19.9,19.9,0,0,1,318,109h-3.7l-1.1-.4-1.5-.8-2.2-1.9-.9-1.2-.2-.5a41.7,41.7,0,0,1-1-6l.3-2.8c.3-1.4.7-2.9,1-4.3s1.6-5.8,2.5-8.6a59.3,59.3,0,0,1,3.1-6.8,38.7,38.7,0,0,1,3.6-5.9l1-1a5.3,5.3,0,0,0,2.2-3.6,8.2,8.2,0,0,0-1.7-6,13.1,13.1,0,0,0-6.7-4.6c-2.3-.6-5.7-.8-7.7.9a46.3,46.3,0,0,0-11.2,14.4,49.8,49.8,0,0,0-2,5.4,25.9,25.9,0,0,0-.9,4,37.9,37.9,0,0,1-3.4,2,32.8,32.8,0,0,1-6.8,1.9h-1.9c1.1-5,2-10,2.7-15.1.9-6.7,0-13.7-4-19.4a22.9,22.9,0,0,0-5.5-4.8,25.2,25.2,0,0,0-4.9-2.5,14.1,14.1,0,0,0-6.4-1.2,18.6,18.6,0,0,0-5.2,1.1,16.9,16.9,0,0,0-4.9,2.8l-1.7,1.6a26,26,0,0,0-3,3.6,17.1,17.1,0,0,0-2.7,6,29.9,29.9,0,0,0-1,4.3,8.6,8.6,0,0,0-.1,1.6,13.3,13.3,0,0,0-5.2-1.3c-2.6,0-5.4.9-6.7,3.2a82,82,0,0,0-4,7.8c-1.3,2.9-2.4,6-3.4,9a54.2,54.2,0,0,0-2.6,16.5c0,.8-.1,1.6-.1,2.4s.1,2.1.2,3.1a34.9,34.9,0,0,0,.7,4.3c0,.1.1.1.1.2a55.6,55.6,0,0,1-4.2,5.4l-3.8,3.9c-1.6,1.5-3.3,2.9-5,4.3l-.3-5.5c-.3-5.9-.6-11.7-1.2-17.5s-1.4-11.9-2.2-17.9c-1.1-8-3.5-15.8-5.4-23.7-1-4.3-2.1-8.6-3.5-12.9l-1.8-5.6c-1.2-3.5-2.5-7.3-6.5-8.4a4.5,4.5,0,0,0-3.9.5,2.8,2.8,0,0,0-1.2,2.8,13.6,13.6,0,0,0,.2,2v.6a201.3,201.3,0,0,1-1.6,26.9A144.5,144.5,0,0,1,174.2,88a25,25,0,0,1-3.9,7.4,21.2,21.2,0,0,1-4.2,3.2,10.9,10.9,0,0,1-3.1.8h-.9l-1.9-.6-2.4-1.4a27.3,27.3,0,0,1-2.5-2.3l-.9-1.3a13.3,13.3,0,0,1-1-2.4,60.4,60.4,0,0,1-1.7-15.3c0-3.9.3-7.7.3-11.5A87.6,87.6,0,0,0,151.1,50.2ZM187,143.9a89,89,0,0,1-3.5,12.5,25.3,25.3,0,0,1-1.9,4.5,34.8,34.8,0,0,1-2.8,3.9,34.7,34.7,0,0,1-3.7,3,21.7,21.7,0,0,1-3.3,1.9,34.6,34.6,0,0,1-7,1.9,36.9,36.9,0,0,1-4.7-.1l-4.2-1.2-1.7-.9-1.6-1.3-.9-1.3a16,16,0,0,1-1-2.3,19.7,19.7,0,0,1-.6-3.5,22.6,22.6,0,0,1,.8-5.1,17.3,17.3,0,0,1,2.5-3.9,34.8,34.8,0,0,1,5.2-4.1l3-1.8,2.8-1.5,7.5-2.8a73.5,73.5,0,0,1,8.3-2.8c2.4-.8,4.9-1.4,7.5-2C187.5,139.3,187.3,141.6,187,143.9Zm78.4-85.8a23.9,23.9,0,0,1,2.9-5.2l.4-.3h.2l.5.4.8,1a16.9,16.9,0,0,1,1.1,2.7,29,29,0,0,1,.9,7.2,77.2,77.2,0,0,1-1.4,14.4,15.5,15.5,0,0,1-.4,2.1l-1.8-1.2a19.5,19.5,0,0,1-2.6-2.4,11.3,11.3,0,0,1-1-1.3,14.2,14.2,0,0,1-.8-1.8l-.3-1.3c0-.4-.1-.8-.1-1.2A51.7,51.7,0,0,1,265.4,58.1Zm-25,36.6a68.8,68.8,0,0,1,2.5-10.9c1-2.4,2.1-4.7,3.3-7a23.4,23.4,0,0,0,2,2.7,27.5,27.5,0,0,0,8.5,7,57.3,57.3,0,0,0,9.6,4l1.6.4c-.2.5-.3,1-.5,1.4-3.1,8.5-5.9,17.1-11.6,24.2l-1.3,1.2a11.9,11.9,0,0,1-2.3,1.6l-2.9.8h-1.1a37.9,37.9,0,0,1-4.8-1.4l-1.1-.6-.6-.8a20.5,20.5,0,0,1-1.6-4.1,44.2,44.2,0,0,1-1-7.3C239.3,102.2,239.9,98.4,240.4,94.7Z"/><path class="cls-1" d="M497,300.7a6.5,6.5,0,0,0-3.8-1.6c-1.1,0-2.6.4-3.1,1.5s-1.2,2.6-1.9,3.8a13.3,13.3,0,0,1-5.4,5.1,22.6,22.6,0,0,1-3.7,1.1h-1.8l-2.3-.7-.8-.5-1.5-1.2a18.8,18.8,0,0,1-1.6-2.3,37.6,37.6,0,0,1-2.3-5.5c-.6-2.1-1-4.3-1.4-6.4a58.3,58.3,0,0,1-.6-7.3c.1-5.1.5-10.3.8-15.4s1-10.6,1.5-15.9,1-11.7,1.6-17.5c1.3-11.3,3.5-22.4,4.5-33.7.2-2.5.5-4.9.7-7.3s.4-2.9.5-4.3l.3-2.4c.6-3.1,1.1-6.1,1.5-9.2a14.9,14.9,0,0,0,.2-2.1,7.1,7.1,0,0,0-.6-3.8,10.3,10.3,0,0,0-2.5-3.4,13.4,13.4,0,0,0-4.4-2.4c-2-.5-4.9-.7-6.7.8a6.6,6.6,0,0,0-2,2.7,42.8,42.8,0,0,0-2.6,9.3c-.7,3.2-1.4,6.4-1.8,9.7l-.3,1.9c-.3,1.4-.6,2.8-.8,4.2s-1.1,5.7-1.6,8.5c0,.2-.1.3-.1.5-1.6,5.6-2.9,11.1-4.1,16.7-.2,1.3-.4,2.5-.7,3.7l-2.4-1.8a30.7,30.7,0,0,0-3.1-1.7,19.8,19.8,0,0,0-7.6-2.3,11.5,11.5,0,0,0-3.7.1,10.2,10.2,0,0,0-2.5.6,27.7,27.7,0,0,0-5.4,2.8,33.8,33.8,0,0,0-5,5,19.9,19.9,0,0,0-2.4,3.3,47.3,47.3,0,0,0-3.9,7.4,56.1,56.1,0,0,0-3.2,9.8,43.6,43.6,0,0,0-.6,8.1v1.9a24.4,24.4,0,0,0,.1,2.7c-.5.8-1,1.6-1.6,2.4a99.9,99.9,0,0,1-9.6,11.9c-1.7,1.8-3.4,3.6-5.2,5.3a32.6,32.6,0,0,1-6.2,4.9,15.6,15.6,0,0,1-3.7,1,10.5,10.5,0,0,1-2.5-.1l-1.6-.4-1.2-.7-.4-.6-.8-1.8c-.2-1-.3-1.9-.4-2.8s.5-4.3.9-6.4l1.5-7h1a35.8,35.8,0,0,0,7.9-2.3,26.6,26.6,0,0,0,16.5-19.5,18,18,0,0,0,.4-7.3,15.4,15.4,0,0,0-2.4-5,15.2,15.2,0,0,0-5-4.4A16.4,16.4,0,0,0,391,228a15.6,15.6,0,0,0-6.1.4,23.8,23.8,0,0,0-8.3,3.6,39.2,39.2,0,0,0-4.6,4.5l-2.7,3.2a72.9,72.9,0,0,0-4.9,7.4,49.8,49.8,0,0,0-3.9,9.2,39.8,39.8,0,0,0-1.7,7.6,9.2,9.2,0,0,1-.1,1.6l-2.9,1.5c-1.6.8-3.1,1.7-4.6,2.6a6,6,0,0,0-2.1,2.1,18,18,0,0,0-.8,2.1l.3-.8c-1.8,5.2-2.8,10.6-4.2,15.9s-3,10.9-4.8,16.2c-1.1,2.8-2.1,5.6-3.3,8.3a31,31,0,0,1-4.2,7,18.1,18.1,0,0,1-3,2.5l-1,.2-.6-.8-.6-1.3a41.2,41.2,0,0,1-.9-8.6c.1-7.8.5-15.6,1.3-23.3.3-4.1.6-8.2,1.3-12.3a124.3,124.3,0,0,1,3.2-13.4,7.5,7.5,0,0,0-.5-3.6,10.9,10.9,0,0,0-4.4-4.6,9.6,9.6,0,0,0-7.4-1.3l-1.9,1a5,5,0,0,0-2,3.1c-1.5,5.5-3.3,11.1-4.5,16.7a6.9,6.9,0,0,0-1.3,1.1,53,53,0,0,1-7.6,4.6,23.6,23.6,0,0,1-5.7,1.8h-1.7a121.7,121.7,0,0,0,5.8-14.5,51.6,51.6,0,0,0,1.7-7.8,34.4,34.4,0,0,0,.5-8.5,16.9,16.9,0,0,0-1.7-6.2,15.4,15.4,0,0,0-7.7-7.6l-3.9-1.5a15.1,15.1,0,0,0-7-.5,17.2,17.2,0,0,0-8.4,4.2,35,35,0,0,0-4.9,5.3,27.3,27.3,0,0,0-2.3,4.5,50.5,50.5,0,0,0-1.8,5.5,19.7,19.7,0,0,0-.7,3.5,11.9,11.9,0,0,0-7.2-2.7c-2.3,0-5.4.8-6.4,3.1-2,4.3-4.1,8.7-5.8,13.2-3.3,3.8-5.9,8.2-8.6,12.4s-5.8,8.7-8.7,12.9-6,8.6-9.1,12.8a109.5,109.5,0,0,1-9.2,11.2,74.6,74.6,0,0,1-8,7.9,52.5,52.5,0,0,1-9.2,6.1,24.3,24.3,0,0,1-6,1.7H184l-1.2-.4-.8-.5h-.1l-.8-1.1a15.4,15.4,0,0,1-.8-1.9,24.8,24.8,0,0,1-.3-2.7,73.4,73.4,0,0,1,1.9-10.6c.8-3.7,2.1-7.3,3.2-10.9q3.3-10.8,6.9-21.3c.7-1.7,1.3-3.4,2-5l8.2-3.1a70.2,70.2,0,0,0,16.1-8.3,98.1,98.1,0,0,0,14.3-12.2c1.9-2.2,3.8-4.5,5.5-6.9s3.3-5.1,4.9-7.7a61,61,0,0,0,3.7-7.2,24.9,24.9,0,0,0,2.5-9.7,32.3,32.3,0,0,0,0-4.4,14.4,14.4,0,0,0-3.2-8.1,21.3,21.3,0,0,0-4.7-4.3,16.5,16.5,0,0,0-4.1-1.8,14.1,14.1,0,0,0-2.7-.5,18.8,18.8,0,0,0-3.3-.2,27.5,27.5,0,0,0-12.7,4.6,45.4,45.4,0,0,0-6.3,5.3c-8.7,8.5-15.9,18.4-22.6,28.4-3.4,5-6.6,10-9.7,15.1a134.3,134.3,0,0,0-8.2,14.9c-.6,1.2-1.1,2.5-1.6,3.7h-4.6a3,3,0,0,0-3.4,2.9v.4c.3,2.4,3,4.2,5.3,4.3-.7,2.1-1.3,4.1-1.9,6.2a97.3,97.3,0,0,0-2.6,16.9,72.1,72.1,0,0,0,.1,10.4,37.8,37.8,0,0,0,2,10,19.9,19.9,0,0,0,4,6.7,25.2,25.2,0,0,0,5.4,4.9,21.4,21.4,0,0,0,16.7,3c5.7-1.5,10.7-4.6,15.4-8.1a57.2,57.2,0,0,0,6.2-5.9c2.1-2.2,4.1-4.5,6.1-6.9,3.6-4.3,6.9-8.8,10.2-13.5s6.8-9.3,10-14.1l1.9-2.9a21.8,21.8,0,0,0,1.4,4.8,27.4,27.4,0,0,0,3.6,5.9,22.2,22.2,0,0,0,7.6,6.3,21.6,21.6,0,0,0,10,2.3,18.8,18.8,0,0,0,10.2-3.1,38,38,0,0,0,6.6-5.4,53.8,53.8,0,0,0,5.8-7,72.6,72.6,0,0,0,4.7-8l2.8.3a27.9,27.9,0,0,0,5-.1,20.1,20.1,0,0,0,5.4-1.2l3.5-1.6,1-.5a30.3,30.3,0,0,0-.6,4.2c-.2,2.4-.3,4.7-.3,7.1a76.8,76.8,0,0,0,.9,11.7,49.2,49.2,0,0,0,2.7,9.8,24,24,0,0,0,8.9,11,15.8,15.8,0,0,0,11.9,2.7,14.8,14.8,0,0,0,5.3-2.3,19,19,0,0,0,2.8-2.9,22.9,22.9,0,0,0,4-6.7c1.1-2.5,1.8-5.2,2.7-7.7s1.7-5.4,2.4-8.2q2.1-7.4,3.9-15c.5-2.4,1.1-4.9,1.6-7.4s.9-4.2,1.5-6.3l.2-.3.4-.2,2.4-1.1a27.3,27.3,0,0,0,3,8.7c2.7,5,6.3,9.6,11.6,12a18.1,18.1,0,0,0,4.9,1.8,30.3,30.3,0,0,0,4.2.6,19.1,19.1,0,0,0,14.1-4.9,36.1,36.1,0,0,0,3.3-3.5c2.3-2.6,4.5-5.4,6.6-8l6.5-8.1a4.4,4.4,0,0,1,.8-1.1h0a19.2,19.2,0,0,0,1.8,2.2,27.2,27.2,0,0,0,3,2.9l1.8,1.2a17.7,17.7,0,0,0,3.1,1.5,20.1,20.1,0,0,0,5.5,1.3,17.7,17.7,0,0,0,8.8-.8,19.3,19.3,0,0,0,7.1-4.6,28.5,28.5,0,0,0,2.3-2.6V276a90,90,0,0,0,1.3,16.4,32.9,32.9,0,0,0,3.1,9.3,38.1,38.1,0,0,0,6.7,9.2,30.6,30.6,0,0,0,7.8,5.5,42.5,42.5,0,0,0,4.9,2.1,21,21,0,0,0,5.1,1.1,20.5,20.5,0,0,0,14.2-3.7,16.4,16.4,0,0,0,4.6-4.5,24.6,24.6,0,0,0,1.7-2.7,32.7,32.7,0,0,0,1.4-3.3,3.1,3.1,0,0,0,.3-1.9A5.1,5.1,0,0,0,497,300.7ZM396.7,238.4Zm-.1-.1Zm-.1-.1ZM383.4,255a58.2,58.2,0,0,1,2.7-6.4,40.3,40.3,0,0,1,4.3-7.5,17.2,17.2,0,0,1,3.5-2.5l1.8-.5h.7c.2.2.4.3.5.5l.4.5.2.3c.1.5.1,1.1.2,1.6a28.6,28.6,0,0,1-1.3,5.8,20.3,20.3,0,0,1-3.5,5.6,28.6,28.6,0,0,1-8,5.3l-2.7,1Zm-178.1,2.6c2.5-5.4,5-10.8,7.9-15.9a114,114,0,0,1,9.6-14.2c1.1-1.3,2.1-2.6,3.2-3.8l2.6-2.6a20.3,20.3,0,0,1,4.3-2.9,12.9,12.9,0,0,1,2.6-.8h1.7l.8.2.6.4.7.6.7,1,.6,1.4c.2,1.2.3,2.3.4,3.5a22.6,22.6,0,0,1-.9,5.8,42.3,42.3,0,0,1-2.7,5.7,58.3,58.3,0,0,1-3.9,6.2c-1.3,2.1-2.7,4.3-4.2,6.3s-2.9,3.6-4.5,5.3a79.5,79.5,0,0,1-11.1,9.8,64.9,64.9,0,0,1-6.1,4.1,47.5,47.5,0,0,1-5.9,3.1l-3.1,1.3C200.8,267.3,203,262.4,205.3,257.6Zm87.8-10.3-.5-.4h0Zm-18.5,49.1a30.6,30.6,0,0,1-3.9,3.4,24.4,24.4,0,0,1-4.1,2.4,16.1,16.1,0,0,1-2.9.9h-1.5l-.7-.2-.9-.5h-.1l-.2-.2c-.4-.9-.8-1.7-1.1-2.6a11,11,0,0,1-.2-1.8,63.3,63.3,0,0,1,3.4-16.1c1.1-2.8,2.3-5.6,3.5-8.4a32.9,32.9,0,0,0,6.5,8.8,27,27,0,0,0,6.8,4.8l1.6.7A70.5,70.5,0,0,1,274.6,296.4Zm18.3-36.9a66.1,66.1,0,0,1-2.2,7.6c-1.4,3.6-2.9,7.1-4.6,10.5l-.2-.2a8.6,8.6,0,0,1-.7-1,30.4,30.4,0,0,1-2.3-5.2,36,36,0,0,1-.6-7.3,31.9,31.9,0,0,1,.4-5.4,27.9,27.9,0,0,1,1-3.9,22.5,22.5,0,0,1,3.8-6.3,8.7,8.7,0,0,1,2.1-1.7l1-.3h.8l.9.3h0a1.8,1.8,0,0,1,.5.7l.6,1.4c.2,1.2.3,2.4.4,3.6A59,59,0,0,1,292.9,259.5Zm151.5,4.4a33.6,33.6,0,0,1-4.5,6.5,9.7,9.7,0,0,1-3.9,2.8,6.1,6.1,0,0,1-6.3-1.2l-.9-2.1c0-.5-.1-1.1-.1-1.6.1-3.9.4-7.9.8-11.8s2-8.8,3.4-13.1a17.3,17.3,0,0,1,1.4-3.1,26.2,26.2,0,0,1,3.3-5.3,16.8,16.8,0,0,1,3.4-2.7h1.5l2,.5,1,.6.3.3.3.4C451.4,241.6,449.1,254.7,444.4,263.9Z"/><path class="cls-1" d="M250.4,156.2c-.2-1.3-.5-2.7-.7-4.1a39.6,39.6,0,0,0-1.3-4.6,7.7,7.7,0,0,0-2.3-3.6,5.7,5.7,0,0,0-3.9-1.6,5.1,5.1,0,0,0-2.1.6,9.4,9.4,0,0,0-1,1l-1.2,1.6c-1.3,2.1-2.4,4.4-3.6,6.6l-4.8,9c-1.8,3.2-3.6,6.3-5.2,9.5s-3.2,6-4.7,9-3.1,6.7-4.6,10.1a3.1,3.1,0,0,0-.3,1.3,4.2,4.2,0,0,0,1.5,3,5.7,5.7,0,0,0,3.5,1.4c1,0,2.4-.3,2.8-1.3,1.8-4,3.5-8,5.6-11.8l1.3-2.6c3.3.5,6.6,1.1,9.9,1.4v3.4c0,1.9.1,3.8.1,5.7a35.5,35.5,0,0,0,.6,5.6,7.6,7.6,0,0,0,5.5,5.6,6.3,6.3,0,0,0,3.6.1c1.3-.4,2.8-1.5,2.9-3s.4-5.5.4-8.2.1-6.3,0-9.5c-.2-5.5-.5-11-1-16.4C251.1,161.7,250.8,158.9,250.4,156.2Zm-16.2,14.4c2-3.7,4-7.3,5.8-11-.2,4.1-.5,8.2-.6,12.3v1.7h-.1l-6.2-.7Z"/><path class="cls-1" d="M297.1,176.7a22.3,22.3,0,0,0,4.9-4.8,20.8,20.8,0,0,0,3.1-5.9,15.1,15.1,0,0,0-.3-9.4,22.7,22.7,0,0,0-6-9.7,21.7,21.7,0,0,0-3-2.3,5.7,5.7,0,0,0-1.3-.8,21.5,21.5,0,0,0-4.6-2.2,30.9,30.9,0,0,0-8.5-1.4,61.5,61.5,0,0,0-7.4.6,8.7,8.7,0,0,0-2.8.1,4.4,4.4,0,0,0-3.1,3.2c-1.3,9.1-2.8,18.1-4.3,27.1-.7,4.1-1.3,8.2-1.9,12.3a66.5,66.5,0,0,0-1.1,10,28,28,0,0,0,.3,4,7.5,7.5,0,0,0,5.4,5.5c2.5.7,5.8,0,6.4-2.9s.9-3.9,1.2-5.9l.9-6.4c.4-2.4.7-4.8,1-7.2a6.5,6.5,0,0,0,2.1.5c.8,4.9,1.5,9.9,2.4,14.8.5,2.9,1,5.7,1.6,8.6a40.4,40.4,0,0,0,2.7,9.6,8.7,8.7,0,0,0,7.6,4.9,5.2,5.2,0,0,0,3.4-.9l1.1-1.2a3.9,3.9,0,0,0,.5-2.8,35,35,0,0,0-1.1-7.9l-1.8-8.7c-1.1-5.9-2.2-11.9-3.1-17.8h-.1l1.4-.4A19.2,19.2,0,0,0,297.1,176.7Zm-10.2-27.5,2.6.8a15.6,15.6,0,0,1,2.8,1.6,4.4,4.4,0,0,1,1.1.9,19.5,19.5,0,0,1,1.7,2.3,29.2,29.2,0,0,1,1.4,3.1c.2,1,.4,2,.5,3a18.4,18.4,0,0,1-.5,2.5,23.1,23.1,0,0,1-3.1,5.2,22.9,22.9,0,0,1-4.6,3.4,24.8,24.8,0,0,1-3.9,1h-.8a7.1,7.1,0,0,0-2.9,0,27.3,27.3,0,0,1-4.1-.3c1.1-7.8,2.3-15.6,3.4-23.4A34.2,34.2,0,0,1,286.9,149.2Z"/><path class="cls-1" d="M340.2,152.8a3,3,0,0,0,3.4-3.2,5.4,5.4,0,0,0-4-4.1,40.3,40.3,0,0,0-10.9-1.4H317.2a4.4,4.4,0,0,0-2.4.7,3,3,0,0,0-1.1,2.3v.5a4.6,4.6,0,0,0,.8,1.9,1.3,1.3,0,0,0-.1.6c-.1,3.2-.2,6.3-.5,9.4s-.7,5.6-1.1,8.4c-.8,5.5-1.7,11-2.6,16.4a73.5,73.5,0,0,0-1.1,8.2,25.3,25.3,0,0,0-.1,2.8v1.9a9.3,9.3,0,0,0,1.7,4.8,8.4,8.4,0,0,0,4.5,3.1,16.8,16.8,0,0,0,3.9.7h4.1a62.7,62.7,0,0,0,7.5-.3l1.9-.2a3.9,3.9,0,0,0,2.4-.6,3,3,0,0,0,1.1-2.8c-.4-2.6-3.1-4.3-5.6-4.4l-8.2-.4,1.2-4.9q1.3-6,2.4-12l.6-3.7,2,.2,6.9.6a3.1,3.1,0,0,0,3.4-3.2,5,5,0,0,0-1.6-2.8l-1-.7a7,7,0,0,0-2.7-.8l-6-.7c.5-4.8.9-9.6,1-14.4a5.7,5.7,0,0,0-.3-2.6h2.3C333.7,152.4,337,152.4,340.2,152.8Z"/><path class="cls-1" d="M374.4,169.9c-4.1-.2-8.1-.1-12.1.1a4.8,4.8,0,0,0-2.6.7,3.2,3.2,0,0,0-1.3,2.6.9.9,0,0,0,.1.5,5.2,5.2,0,0,0,1.8,3.2,6.9,6.9,0,0,0,4.3,1.8c4-.3,8-.4,11.9-.5a4.6,4.6,0,0,0,2.6-.7,3.4,3.4,0,0,0,1.2-3C379.9,171.9,376.9,169.9,374.4,169.9Z"/><path class="cls-1" d="M207.1,170h-9.3a3.2,3.2,0,0,0-2.3.6,2.6,2.6,0,0,0-1,2.2v.4c.3,2.5,3,4.3,5.3,4.3H209a4.6,4.6,0,0,0,2.3-.6,2.8,2.8,0,0,0,1-2.7C212,171.9,209.4,170,207.1,170Z"/><path class="cls-3" d="M343.6,238.8a11.3,11.3,0,0,0,0-22.5,11.3,11.3,0,1,0,0,22.5Z"/><path class="cls-3" d="M140.5,131.4a9.3,9.3,0,1,0-9.3-9.3A9.3,9.3,0,0,0,140.5,131.4Z"/><path class="cls-3" d="M241,337.1a2.5,2.5,0,0,0,0-5,2.5,2.5,0,0,0,0,5Z"/><path class="cls-3" d="M247,108.4a2.1,2.1,0,0,0,2.1-2,2.2,2.2,0,0,0-2.1-2.1,2.1,2.1,0,0,0-2,2.1A2,2,0,0,0,247,108.4Z"/><ellipse class="cls-3" cx="303.2" cy="227.6" rx="2.4" ry="2.4"/><path class="cls-3" d="M376.3,212.2a5.9,5.9,0,0,0-5.8-5.9,5.9,5.9,0,1,0,0,11.8A5.9,5.9,0,0,0,376.3,212.2Z"/><path class="cls-3" d="M172.7,234.2a5,5,0,1,0,5-5A5.1,5.1,0,0,0,172.7,234.2Z"/><path class="cls-3" d="M287.6,332.1a5.3,5.3,0,1,0,10.5,0,5.3,5.3,0,0,0-10.5,0Z"/><circle class="cls-3" cx="405.3" cy="82" r="11.2"/><path class="cls-3" d="M162.8,206.8a7.3,7.3,0,1,0-7.2-7.3A7.3,7.3,0,0,0,162.8,206.8Z"/><path class="cls-3" d="M140.5,319.9a7.2,7.2,0,1,0-7.2-7.2A7.3,7.3,0,0,0,140.5,319.9Z"/><path class="cls-3" d="M89.2,303.8A2.2,2.2,0,1,0,87,306,2.2,2.2,0,0,0,89.2,303.8Z"/><path class="cls-3" d="M370.5,46.6a5.7,5.7,0,0,0,5.6-5.7,5.7,5.7,0,0,0-11.3,0A5.8,5.8,0,0,0,370.5,46.6Z"/><path class="cls-3" d="M118.5,166.5a5.1,5.1,0,0,0-5.1,5.1,5.1,5.1,0,1,0,10.2,0A5.1,5.1,0,0,0,118.5,166.5Z"/><path class="cls-3" d="M402.8,322.1a2.1,2.1,0,1,0,2.1,2.1A2.1,2.1,0,0,0,402.8,322.1Z"/><path class="cls-3" d="M369.4,303.9a3.6,3.6,0,0,0-3.6,3.6,3.6,3.6,0,1,0,7.1,0A3.6,3.6,0,0,0,369.4,303.9Z"/><circle class="cls-3" cx="220.3" cy="290.2" r="2.1"/><path class="cls-3" d="M193.4,303.1a5.3,5.3,0,1,0,5.2-5.2A5.3,5.3,0,0,0,193.4,303.1Z"/><path class="cls-3" d="M166.7,122.1a4.7,4.7,0,0,0-4.6-4.6,4.6,4.6,0,1,0,0,9.2A4.7,4.7,0,0,0,166.7,122.1Z"/><path class="cls-3" d="M75.4,65.8a2.1,2.1,0,1,0-2-2.1A2.1,2.1,0,0,0,75.4,65.8Z"/><circle class="cls-3" cx="209.2" cy="19.3" r="2.1"/><circle class="cls-3" cx="268" cy="2.1" r="2.1"/><path class="cls-3" d="M403.2,217.4a2,2,0,0,0,2-2.1,2,2,0,0,0-2-2,2,2,0,0,0-2.1,2A2.1,2.1,0,0,0,403.2,217.4Z"/><path class="cls-3" d="M194.9,208.4a2.1,2.1,0,1,0-2-2.1A2.1,2.1,0,0,0,194.9,208.4Z"/><circle class="cls-3" cx="162.1" cy="7.6" r="3.5"/><circle class="cls-3" cx="245" cy="26.6" r="7.2"/><circle class="cls-3" cx="214.7" cy="40.9" r="5.5"/><path class="cls-3" d="M326.3,93.5a2.6,2.6,0,1,0-2.6-2.6A2.6,2.6,0,0,0,326.3,93.5Z"/><circle class="cls-3" cx="434.8" cy="315" r="3.5"/><path class="cls-3" d="M288,124.9a6.3,6.3,0,1,0,0-12.6,6.3,6.3,0,0,0,0,12.6Z"/><path class="cls-3" d="M414.2,308.5a6.4,6.4,0,0,0,6.3-6.3,6.4,6.4,0,0,0-12.7,0A6.4,6.4,0,0,0,414.2,308.5Z"/><path class="cls-3" d="M367.2,90.9a3.3,3.3,0,1,0,6.5,0,3.3,3.3,0,0,0-6.5,0Z"/><path class="cls-3" d="M56.7,94.7a6.3,6.3,0,0,0,6.2-6.3,6.2,6.2,0,0,0-6.2-6.2,6.3,6.3,0,0,0-6.3,6.2A6.4,6.4,0,0,0,56.7,94.7Z"/><circle class="cls-3" cx="101.8" cy="322.3" r="6.1"/><path class="cls-3" d="M137.9,342.1a2.6,2.6,0,1,0,2.6-2.6A2.6,2.6,0,0,0,137.9,342.1Z"/><path class="cls-3" d="M260.8,221.4a6.2,6.2,0,1,0,0,12.4,6.2,6.2,0,1,0,0-12.4Z"/><path class="cls-3" d="M328.9,26.6a8.7,8.7,0,1,0,8.7,8.7A8.8,8.8,0,0,0,328.9,26.6Z"/><path class="cls-3" d="M438.9,189.5a3.4,3.4,0,0,0-3.4,3.4,3.5,3.5,0,0,0,3.4,3.4,3.4,3.4,0,0,0,3.4-3.4A3.4,3.4,0,0,0,438.9,189.5Z"/><path class="cls-3" d="M317.4,341.9a2.8,2.8,0,1,0,2.8,2.8A2.9,2.9,0,0,0,317.4,341.9Z"/><path class="cls-3" d="M166.7,66.3a4.7,4.7,0,1,0-4.6-4.7A4.7,4.7,0,0,0,166.7,66.3Z"/><path class="cls-3" d="M430.8,36.9a4,4,0,1,0,0,8,4,4,0,0,0,0-8Z"/></g></g></svg>